<?xml version="1.0" encoding="utf-8"?>
<!-- Generator: Adobe Illustrator 27.9.0, SVG Export Plug-In . SVG Version: 6.00 Build 0)  -->
<svg version="1.1" id="Layer_1" xmlns="http://www.w3.org/2000/svg" xmlns:xlink="http://www.w3.org/1999/xlink" x="0px" y="0px"
	 viewBox="0 0 1200 1200" style="enable-background:new 0 0 1200 1200;" xml:space="preserve">
<style type="text/css">
	.st0{fill:none;stroke:#000000;stroke-width:6;stroke-miterlimit:10;}
	.st1{fill:none;stroke:#000000;stroke-width:10;stroke-miterlimit:10;}
</style>
<path d="M925,0H275c-41.4,0-75,33.6-75,75v1050c0,41.4,33.6,75,75,75h650c41.4,0,75-33.6,75-75V75C1000,33.6,966.4,0,925,0L925,0z
	 M950,1125c0,13.8-11.2,25-25.1,25h-650c-13.8,0-25-11.2-25-25V75c0-13.8,11.2-25,25-25h650c13.8,0,25.1,11.2,25.1,25V1125z"/>
<circle class="st0" cx="600" cy="350" r="50"/>
<circle class="st1" cx="600" cy="350" r="70"/>
<circle class="st0" cx="600" cy="850" r="50"/>
<circle class="st1" cx="600" cy="850" r="70"/>
<path d="M848.9,462.9l-18.2-34.4c-6.4-12.2-21.6-16.9-33.8-10.5c-4.6,2.4-8.2,6.1-10.5,10.4c-6.7-11.4-21.4-15.7-33.3-9.5
	c-5.4,2.8-9.3,7.3-11.4,12.4c-2.5-2.1-5.4-3.7-8.6-4.7c-6.4-2-13.2-1.4-19.1,1.7c-4.5,2.4-8.1,5.9-10.4,10.3l-17.6-33.4
	c-6.4-12.2-21.6-16.9-33.8-10.5c-5.9,3.1-10.3,8.3-12.3,14.7c-2,6.4-1.4,13.1,1.7,19l58,109.8c0,0.1,0.1,0.1,0.1,0.2
	c-0.1,0-0.1-0.1-0.2-0.1l-22.3-14.9c-5.5-3.7-12.2-5.1-18.8-3.8c-6.6,1.3-12.2,5-16,10.5c-7.7,11.4-4.7,26.9,6.8,34.6l124.4,83.4
	c0.9,0.6,2,0.9,3.1,0.9c0.9,0,1.7-0.2,2.6-0.6l91.9-48c1.8-1,3-2.9,2.9-4.9C873.9,591.8,872.3,507.2,848.9,462.9L848.9,462.9z
	 M777,637.2l-121.7-81.5c-6.4-4.3-8.1-13-3.8-19.4c2.1-3.1,5.3-5.2,9-5.9c3.7-0.7,7.4,0,10.5,2.1l22.3,15c2.7,1.8,11.1,7.4,16.6,2.5
	c5.5-4.9,0.9-13.8-0.7-16.7l-58-109.8c-1.7-3.3-2.1-7.1-1-10.7c1.1-3.6,3.6-6.5,6.9-8.2c6.9-3.6,15.4-1,19,5.9l47.5,89.9
	c1.4,2.7,4.7,3.7,7.4,2.3c2.7-1.4,3.7-4.7,2.3-7.4l-20.2-38.2c-1.7-3.3-2.1-7.1-1-10.6c1.1-3.6,3.6-6.5,6.9-8.2
	c3.3-1.7,7.1-2.1,10.7-1c3.6,1.1,6.5,3.5,8.3,6.8l24.7,46.8c1.4,2.7,4.7,3.7,7.4,2.3c2.7-1.4,3.7-4.7,2.3-7.4l-20.2-38.2
	c-3.6-6.8-1-15.3,5.9-18.9c6.9-3.6,15.4-1,19,5.9l24.7,46.8c1.4,2.7,4.7,3.7,7.4,2.3c2.7-1.4,3.7-4.7,2.3-7.4l-15.6-29.6
	c-3.6-6.8-1-15.3,5.9-18.9c6.9-3.6,15.4-1,19,5.9l18.2,34.4c19.6,37.2,23.2,108.1,23.8,124.2L777,637.2z"/>
</svg>
