<?xml version="1.0" encoding="UTF-8"?>
<svg width="1200pt" height="1200pt" version="1.1" viewBox="0 0 1200 1200" xmlns="http://www.w3.org/2000/svg">
 <path d="m250.71 901.42c7.1289-6.4375 18.508-16.754 31.082-23.941 7.5586-4.3242 15.527-7.5859 23.188-7.5859 4.457 0 9.1094 1.8594 13.965 4.3828 5.8008 3.0234 11.762 7.0703 17.816 11.098 13.844 9.2109 28.234 17.934 41.738 17.934 13.582 0 27.367-8.7383 40.93-17.992 10.953-7.4531 21.668-15.422 32.621-15.422 10.938 0 21.652 7.9688 32.605 15.422 13.562 9.2539 27.352 17.992 40.93 17.992 13.562 0 27.352-8.7383 40.914-17.992 10.953-7.4531 21.668-15.422 32.605-15.422 10.953 0 21.668 7.9688 32.621 15.422 13.562 9.2539 27.348 17.992 40.93 17.992 13.562 0 27.348-8.7383 40.914-17.992 10.949-7.4531 21.668-15.422 32.617-15.422 10.938 0 21.656 7.9688 32.605 15.422 13.566 9.2539 27.352 17.992 40.93 17.992 13.52 0 27.84-8.7227 41.641-17.945 6.0352-4.0156 11.984-8.0625 17.785-11.07 4.8828-2.5391 9.5781-4.3984 14.109-4.3984 7.8086 0 16.031 3.2734 23.867 7.6289 12.988 7.2188 24.855 17.551 32.297 23.984 3.0664 2.6719 7.7344 2.332 10.402-0.73828 2.6719-3.082 2.332-7.7461-0.75-10.418-7.9844-6.9219-20.812-17.98-34.789-25.727-10.141-5.6406-20.918-9.4922-31.027-9.4922-12.414 0-26.227 8.707-40.09 17.949-11.215 7.4961-22.461 15.469-33.445 15.469-10.949 0-21.668-7.957-32.617-15.426-13.566-9.2383-27.352-17.992-40.918-17.992-13.578 0-27.363 8.7539-40.93 17.992-10.949 7.4688-21.668 15.426-32.602 15.426-10.953 0-21.668-7.957-32.621-15.426-13.566-9.2383-27.352-17.992-40.93-17.992-13.566 0-27.352 8.7539-40.914 17.992-10.953 7.4688-21.668 15.426-32.605 15.426-10.953 0-21.668-7.957-32.621-15.426-13.562-9.2383-27.348-17.992-40.914-17.992-13.578 0-27.363 8.7539-40.93 17.992-10.953 7.4688-21.668 15.426-32.621 15.426-10.98 0-22.301-7.9727-33.562-15.469-13.902-9.2539-27.719-17.949-39.957-17.949-10.051 0-20.617 3.8672-30.508 9.5352-13.594 7.7656-25.949 18.848-33.652 25.785-3.0273 2.7305-3.2617 7.3945-0.53125 10.422 2.7148 3.0234 7.3945 3.2617 10.422 0.54688zm349.15-473.15h-17.211c-16.031 0-29.062 13.031-29.062 29.062v4.1914h-8.5156c-4.0898 0-7.3828 3.3047-7.3828 7.3789v20.09h-7.8086c-4.0703 0-7.3789 3.3047-7.3789 7.3789v88.207c0 4.0742 3.3086 7.3789 7.3789 7.3789h8.8594l4.8086 31.336c0.5625 3.6016 3.6602 6.2578 7.293 6.2578h14.316v71.793c-6.625 4.3555-13.238 9.1797-19.867 13.094-6.5977 3.9102-13.105 7.0234-19.703 7.0234-10.953 0-21.668-7.9688-32.621-15.438-13.562-9.2383-27.348-17.992-40.914-17.992-13.578 0-27.363 8.7539-40.93 17.992-10.953 7.4688-21.668 15.438-32.621 15.438-10.98 0-22.301-7.9844-33.562-15.48-13.902-9.2422-27.719-17.949-39.957-17.949-10.051 0-20.617 3.8672-30.508 9.5352-13.594 7.7773-25.949 18.848-33.652 25.785-3.0273 2.7305-3.2617 7.3945-0.53125 10.422 2.7148 3.0234 7.3945 3.2734 10.422 0.54297 7.1289-6.418 18.508-16.734 31.082-23.938 7.5586-4.3281 15.527-7.5898 23.188-7.5898 4.457 0 9.1094 1.8594 13.965 4.3984 5.8008 3.0117 11.762 7.0586 17.816 11.086 13.844 9.2109 28.234 17.949 41.738 17.949 13.582 0 27.367-8.7539 40.93-17.992 10.953-7.4688 21.668-15.441 32.621-15.441 10.938 0 21.652 7.9727 32.605 15.441 13.562 9.2383 27.352 17.992 40.93 17.992 7.3789 0 14.789-2.4375 22.168-6.2578 5.8008-3.0117 11.602-6.9102 17.402-10.848v65.77c-6.625 4.3672-13.238 9.1797-19.867 13.105-6.5977 3.9141-13.105 7.0117-19.703 7.0117-10.953 0-21.668-7.9688-32.621-15.426-13.562-9.2539-27.348-17.992-40.914-17.992-13.578 0-27.363 8.7383-40.93 17.992-10.953 7.457-21.668 15.426-32.621 15.426-10.98 0-22.301-7.9844-33.562-15.469-13.902-9.2539-27.719-17.949-39.957-17.949-10.051 0-20.617 3.8672-30.508 9.5195-13.594 7.7812-25.949 18.852-33.652 25.801-3.0273 2.7188-3.2617 7.3984-0.53125 10.422 2.7148 3.0273 7.3945 3.2617 10.422 0.53125 7.1289-6.4219 18.508-16.738 31.082-23.941 7.5586-4.3086 15.527-7.5703 23.188-7.5703 4.457 0 9.1094 1.8594 13.965 4.3828 5.8008 3.0273 11.762 7.0547 17.816 11.086 13.844 9.2109 28.234 17.949 41.738 17.949 13.582 0 27.367-8.7383 40.93-17.996 10.953-7.4648 21.668-15.422 32.621-15.422 10.938 0 21.652 7.957 32.605 15.422 13.562 9.2578 27.352 17.996 40.93 17.996 7.3789 0 14.789-2.4375 22.168-6.2617 5.8008-2.9961 11.602-6.8906 17.402-10.832v43.602c0 4.0898 3.3086 7.3789 7.3828 7.3789h69.398c4.0742 0 7.3828-3.2891 7.3828-7.3789v-33.434c7.7773 4.1328 15.586 6.9258 23.336 6.9258 13.562 0 27.348-8.7383 40.914-17.996 10.949-7.4648 21.668-15.422 32.617-15.422 10.938 0 21.656 7.957 32.605 15.422 13.566 9.2578 27.352 17.996 40.93 17.996 13.52 0 27.84-8.7383 41.641-17.949 6.0352-4.0312 11.984-8.0586 17.785-11.086 4.8828-2.5234 9.5781-4.3828 14.109-4.3828 7.8086 0 16.031 3.2773 23.867 7.6172 12.988 7.2148 24.855 17.547 32.297 24 3.0664 2.6562 7.7344 2.332 10.402-0.75391 2.6719-3.0703 2.332-7.7344-0.75-10.406-7.9844-6.9219-20.812-17.977-34.789-25.742-10.141-5.6211-20.918-9.4766-31.027-9.4766-12.414 0-26.227 8.6953-40.09 17.949-11.215 7.5-22.461 15.469-33.445 15.469-10.949 0-21.668-7.9688-32.617-15.426-13.566-9.2539-27.352-17.992-40.918-17.992-13.578 0-27.363 8.7383-40.93 17.992-10.949 7.457-21.668 15.426-32.602 15.426-7.8398 0-15.543-4.207-23.336-9.2266v-66.477c7.7773 4.1328 15.586 6.9219 23.336 6.9219 13.562 0 27.348-8.7539 40.914-17.992 10.949-7.4688 21.668-15.441 32.617-15.441 10.938 0 21.656 7.9727 32.605 15.441 13.566 9.2383 27.352 17.992 40.93 17.992 13.52 0 27.84-8.7383 41.641-17.965 6.0352-4.0117 11.984-8.0586 17.785-11.07 4.8828-2.5391 9.5781-4.3984 14.109-4.3984 7.8086 0 16.031 3.293 23.867 7.6328 12.988 7.2188 24.855 17.551 32.297 23.984 3.0664 2.6719 7.7344 2.332 10.402-0.73828 2.6719-3.0859 2.332-7.75-0.75-10.406-7.9844-6.9375-20.812-17.977-34.789-25.742-10.141-5.6367-20.918-9.4883-31.027-9.4883-12.414 0-26.227 8.707-40.09 17.961-11.215 7.4844-22.461 15.469-33.445 15.469-10.949 0-21.668-7.9688-32.617-15.438-13.566-9.2383-27.352-17.992-40.918-17.992-13.578 0-27.363 8.7539-40.93 17.992-10.949 7.4688-21.668 15.438-32.602 15.438-7.8398 0-15.543-4.207-23.336-9.2227v-82.688h14.301c3.6445 0 6.7461-2.6562 7.293-6.2578l4.8242-31.336h8.8555c4.0742 0 7.3828-3.3047 7.3828-7.3789v-88.207c0-4.0742-3.3086-7.3789-7.3828-7.3789h-7.8047v-20.09c0-4.0742-3.3086-7.3789-7.3828-7.3789h-8.5312v-4.1914c0-16.031-13.016-29.062-29.062-29.062h-17.195v-59.129c0-31.84 25.844-57.684 57.684-57.684 31.836 0 57.684 25.844 57.684 57.684v264.59c0 23.234 18.863 42.082 42.078 42.082 23.234 0 42.082-18.848 42.082-42.082v-294.95c0-4.0742-3.3047-7.3789-7.3789-7.3789s-7.3828 3.3047-7.3828 7.3789v294.95c0 15.086-12.234 27.324-27.32 27.324-15.07 0-27.32-12.238-27.32-27.324v-264.59c0-39.984-32.457-72.441-72.441-72.441s-72.441 32.457-72.441 72.441zm-11.574 201.28h-8.3672v209.34h54.641v-209.34h-31.512v142.98c0 4.0742-3.3086 7.3789-7.3789 7.3789-4.0742 0-7.3828-3.3047-7.3828-7.3789zm72.516-37.594h-107.14l3.5117 22.836h100.12zm-115.73-88.207h-7.8086v73.449h7.6875 0.23828 124.1 0.22266 7.7031v-73.449zm7.3789-14.758h109.58v-12.711h-109.58zm93.668-27.469v-4.1914c0-7.8984-6.4062-14.305-14.305-14.305h-49.164c-7.8984 0-14.305 6.4062-14.305 14.305v4.1914z" fill-rule="evenodd"/>
</svg>
