<?xml version="1.0" encoding="UTF-8"?>
<svg width="1200pt" height="1200pt" version="1.1" viewBox="0 0 1200 1200" xmlns="http://www.w3.org/2000/svg">
 <g>
  <path d="m681.72 686.53-96.996-53.566-97.008 53.566-96.996-53.566-97.008 53.566-91.199-50.363-11.59 21 5.8164 3.2266-0.023437-0.011719 96.996 53.57h0.011718l96.996-53.57 96.996 53.57 97.008-53.57 96.996 53.57 96.996-53.57-0.023438 0.011719 5.8203-3.2266-11.59-21z"/>
  <path d="m772.92 780.17-91.203 50.363-96.996-53.566-97.008 53.566-96.996-53.566-97.008 53.566-91.199-50.363-11.59 21 5.8164 3.2266-0.023437-0.011719 96.996 53.57h0.011718l96.996-53.57 96.996 53.57 97.008-53.57 96.996 53.57 96.996-53.57-0.023438 0.011719 5.8203-3.2266z"/>
  <path d="m681.72 542.53-96.996-53.566-97.008 53.566-96.996-53.566-97.008 53.566-91.199-50.363-11.59 21.012 56.387 31.129 46.402 25.633h0.011718l96.996-53.57 96.996 53.57 97.008-53.57 96.996 53.57 46.406-25.633 56.387-31.129-11.59-21.012z"/>
  <path d="m681.72 398.53-96.996-53.566-97.008 53.566-96.996-53.566-97.008 53.566-91.199-50.363-11.59 21 5.8164 3.2266-0.023437-0.011719 96.996 53.57h0.011718l96.996-53.57 96.996 53.57 97.008-53.57 96.996 53.57 96.996-53.57-0.023438 0.011719 5.8203-3.2266-11.59-21z"/>
  <path d="m948 818.91v-437.83l47.398 47.398 16.969-16.98-76.367-76.355-76.367 76.355 16.969 16.98 47.398-47.398v437.83l-47.398-47.398-16.969 16.969 76.367 76.367 76.367-76.367-16.969-16.969z"/>
 </g>
</svg>
