<?xml version="1.0" encoding="UTF-8"?>
<svg width="1200pt" height="1200pt" version="1.1" viewBox="0 0 1200 1200" xmlns="http://www.w3.org/2000/svg">
 <g>
  <path d="m600 1200c-24 0-48-6-69.602-18l-420-230.4c-45.598-25.203-74.398-73.203-74.398-126v-451.2c0-52.801 28.801-100.8 74.398-126l420-230.4c43.199-24 94.801-24 138 0l420 230.4c45.602 25.199 74.398 73.199 74.398 126v451.2c0 52.801-28.801 100.8-74.398 126l-420 230.4c-20.398 12.004-44.398 18.004-68.398 18.004zm0-1152c-15.602 0-31.199 3.6016-46.801 12l-420 230.4c-31.199 16.801-49.199 49.199-49.199 84v451.2c0 34.801 19.199 67.199 49.199 84l420 230.4c28.801 15.602 63.602 15.602 92.398 0l420-230.4c31.199-16.801 50.398-49.199 50.398-84l0.003906-451.2c0-34.801-19.199-67.199-50.398-84l-420-230.4c-14.402-8.3984-30-12-45.602-12z"/>
  <path d="m438 992.4h-55.199c-13.199 0-24-10.801-24-24 0-13.199 10.801-24 24-24h55.199c13.199 0 24 10.801 24 24 0 13.203-9.6016 24-24 24z"/>
  <path d="m1050 738h-55.199c-13.199 0-24-10.801-24-24s10.801-24 24-24h55.199c13.199 0 24 10.801 24 24s-10.801 24-24 24z"/>
  <path d="m873.6 992.4h-55.199c-13.199 0-24-10.801-24-24 0-13.199 10.801-24 24-24h55.199c13.199 0 24 10.801 24 24 0 13.203-10.801 24-24 24z"/>
  <path d="m376.8 872.4h-150c-13.199 0-24-10.801-24-24 0-13.199 10.801-24 24-24h150c13.199 0 24 10.801 24 24 0 13.203-10.801 24-24 24z"/>
  <path d="m1016.4 872.4h-216c-13.199 0-24-10.801-24-24 0-13.199 10.801-24 24-24h216c13.199 0 24 10.801 24 24 0 13.203-10.797 24-24 24z"/>
  <path d="m891.6 741.6h-176.4c-13.199 0-24-10.801-24-24 0-13.199 10.801-24 24-24h176.4c13.199 0 24 10.801 24 24 0.003906 13.199-10.797 24-23.996 24z"/>
  <path d="m354 741.6h-202.8c-13.199 0-24-10.801-24-24 0-13.199 10.801-24 24-24h202.8c13.199 0 24 10.801 24 24 0 13.199-10.801 24-24 24z"/>
  <path d="m411.6 613.2h-268.8c-13.199 0-24-10.801-24-24s10.801-24 24-24h267.6c13.199 0 24 10.801 24 24-0.003906 13.199-9.6016 24-22.801 24z"/>
  <path d="m1045.2 613.2h-268.8c-13.199 0-24-10.801-24-24s10.801-24 24-24h267.6c13.199 0 24 10.801 24 24s-9.6016 24-22.801 24z"/>
  <path d="m633.6 1078.8c-74.398 0-134.4-63.602-134.4-141.6 0-57.602 66-136.8 105.6-178.8 7.1992-8.3984 18-12 28.801-12s21.602 4.8008 28.801 12c39.602 42 105.6 120 105.6 178.8 1.1914 78-60.008 141.6-134.41 141.6zm0-280.8c-52.801 57.602-86.398 111.6-86.398 139.2 0 51.602 38.398 93.602 86.398 93.602s86.398-42 86.398-93.602c0-27.598-33.602-81.598-86.398-139.2z"/>
  <path d="m471.6 812.4c-39.602 0-72-33.602-72-75.602 0-22.801 16.801-52.801 50.398-87.602 6-6 14.398-9.6016 22.801-9.6016 8.3984 0 16.801 3.6016 22.801 9.6016 33.602 34.801 50.398 64.801 50.398 87.602-1.1992 42.004-34.801 75.602-74.398 75.602zm0-115.2c-16.801 20.398-24 34.801-24 40.801 0 15.602 10.801 27.602 24 27.602 13.199 0 24-12 24-27.602 1.1992-6-7.2031-21.602-24-40.801z"/>
  <path d="m632.4 1018.8c-40.801 0-74.398-39.602-74.398-87.602 0-13.199 10.801-24 24-24s24 10.801 24 24c0 24 15.602 43.199 31.199 38.398 12-4.8008 26.398 2.3984 30 14.398 3.6016 12-2.3984 26.398-14.398 30-6 3.6055-13.199 4.8047-20.402 4.8047z"/>
  <path d="m889.2 308.4c-25.199-25.199-51.602-45.602-81.602-63.602-1.1992-1.1992-2.3984-2.3984-3.6016-2.3984-1.1992-1.1992-3.6016-1.1992-4.8008-2.3984-61.199-34.801-129.6-52.801-201.6-52.801-110.4 0-213.6 43.199-291.6 121.2-9.6016 9.6016-9.6016 24 0 33.602 9.6016 9.6016 24 9.6016 33.602 0 16.801-16.801 36-32.398 55.199-45.602l21.602 37.199c4.8008 7.1992 12 12 20.398 12 3.6016 0 8.3984-1.1992 12-3.6016 12-7.1992 15.602-21.602 8.3984-32.398l-21.602-37.199c42-21.602 88.801-33.602 136.8-36v42c0 13.199 10.801 24 24 24s24-10.801 24-24v-42c48 3.6016 94.801 15.602 136.8 36l-20.398 36c-7.1992 12-2.3984 26.398 8.3984 32.398 3.6016 2.3984 8.3984 3.6016 12 3.6016 8.3984 0 16.801-4.8008 20.398-12l20.398-36c19.199 13.199 38.398 28.801 55.199 45.602 4.8008 4.8008 10.801 7.1992 16.801 7.1992s12-2.3984 16.801-7.1992c12.012-9.6016 12.012-25.199 2.4102-33.602z"/>
  <path d="m709.2 501.6c-18-42-90-45.602-111.6-45.602h-12l-36-136.8c-3.6016-13.199-16.801-20.398-28.801-16.801-13.199 3.6016-20.398 16.801-16.801 28.801l34.801 133.2c-21.602 6-43.199 18-51.602 38.398-15.602 37.199 37.199 80.398 88.801 111.6v72c0 13.199 10.801 24 24 24 13.199 0 24-10.801 24-24v-72c48.004-33.598 100.8-75.598 85.203-112.8zm-111.6 69.598c-31.199-19.199-58.801-42-66-54 7.1992-6 28.801-14.398 64.801-14.398s58.801 8.3984 64.801 14.398c-6.0039 12-33.602 34.801-63.602 54z"/>
 </g>
</svg>
