<?xml version="1.0" encoding="UTF-8"?>
<svg width="100pt" height="100pt" version="1.1" viewBox="0 0 100 100" xmlns="http://www.w3.org/2000/svg">
 <g>
  <path d="m50 38.078-9.9648 12.812c-1.6367 2.1055-2.5352 4.7266-2.5352 7.3906 0 6.6328 5.3984 12.031 12.031 12.031h0.93359c6.6367 0 12.035-5.3984 12.035-12.031 0-2.6602-0.89844-5.2852-2.5352-7.3867zm0.46875 29.109h-0.93359c-4.9141 0-8.9102-3.9961-8.9102-8.9062 0-1.9688 0.66797-3.9141 1.875-5.4688l7.5-9.6406 7.5 9.6406c1.207 1.5547 1.875 3.5 1.875 5.4688 0 4.9102-3.9961 8.9062-8.9062 8.9062z"/>
  <path d="m75 9.0078-0.16406-0.32812c-2.1953-4.3906-6.6055-7.1172-11.512-7.1172h-26.648c-4.9062 0-9.3164 2.7266-11.508 7.1133l-0.16797 0.33203v66.828l9.375 6.25v11.664c0 2.5859 2.1016 4.6875 4.6875 4.6875h6.25c2.5859 0 4.6875-2.1016 4.6875-4.6875v-4.6875h3.125v4.6875c0 2.5859 2.1016 4.6875 4.6875 4.6875h3.125c2.5859 0 4.6875-2.1016 4.6875-4.6875v-11.664l9.375-6.25zm-34.375 64.43v3.125h27.652l-4.6875 3.125h-27.18l-4.6875-3.125h5.7773v-3.125h-9.375v-62.5h43.75v62.5zm-3.9492-68.75h26.652c2.7734 0 5.3281 1.1602 7.1406 3.125h-40.938c1.8125-1.9648 4.3711-3.125 7.1445-3.125zm24.262 90.625h-3.125c-0.86328 0-1.5625-0.69922-1.5625-1.5625v-7.8125h-9.375v7.8125c0 0.86328-0.69922 1.5625-1.5625 1.5625h-6.25c-0.86328 0-1.5625-0.69922-1.5625-1.5625v-10.938h25v10.938c0 0.86328-0.69922 1.5625-1.5625 1.5625z"/>
  <path d="m65.625 14.062h-31.25c-1.7227 0-3.125 1.4023-3.125 3.125v15.625c0 1.7227 1.4023 3.125 3.125 3.125h31.25c1.7227 0 3.125-1.4023 3.125-3.125v-15.625c0-1.7227-1.4023-3.125-3.125-3.125zm-31.25 18.75v-15.625h31.25l0.003906 15.625z"/>
  <path d="m31.25 67.188h3.125v3.125h-3.125z"/>
  <path d="m31.25 39.062h3.125v3.125h-3.125z"/>
  <path d="m65.625 39.062h3.125v3.125h-3.125z"/>
  <path d="m65.625 67.188h3.125v3.125h-3.125z"/>
  <path d="m50 60.938v3.125c3.4453 0 6.25-2.8047 6.25-6.25h-3.125c0 1.7227-1.4023 3.125-3.125 3.125z"/>
 </g>
</svg>
