<?xml version="1.0" encoding="UTF-8"?>
<svg width="100pt" height="100pt" version="1.1" viewBox="0 0 100 100" xmlns="http://www.w3.org/2000/svg">
 <g>
  <path d="m36.5 82.699h-4.6016c-1.1016 0-2-0.89844-2-2 0-1.1016 0.89844-2 2-2h4.6016c1.1016 0 2 0.89844 2 2 0 1.1016-0.80078 2-2 2z"/>
  <path d="m61.301 82.699h-10.102c-1.1016 0-2-0.89844-2-2 0-1.1016 0.89844-2 2-2h10.102c1.1016 0 2 0.89844 2 2 0 1.1016-0.90234 2-2 2z"/>
  <path d="m55.301 91.602h-10.102c-1.1016 0-2-0.89844-2-2 0-1.1016 0.89844-2 2-2h10.102c1.1016 0 2 0.89844 2 2 0 1.0977-0.90234 2-2 2z"/>
  <path d="m38.398 70.699h-19.5c-1.1016 0-2-0.89844-2-2 0-1.1016 0.89844-2 2-2h19.5c1.1016 0 2 0.89844 2 2 0 1.1016-0.89844 2-2 2z"/>
  <path d="m85.898 54.699h-34.199v-9.3008c0.39844 0.10156 0.89844 0.19922 1.3008 0.19922 0.5 0 1-0.10156 1.3984-0.19922 3.1016-0.80078 5.6016-2.1992 7.3984-4.1016 4.8008-4.8008 4.8008-12.398 4.8008-12.801 0-1.1016-0.89844-2-2-2-0.30078 0-7.8984 0-12.801 4.8008-1.6992 1.6992-2.8984 3.8008-3.6992 6.3008-3.6016-3.6992-8.8008-3.6992-9-3.6992-1.1016 0-2 0.89844-2 2 0 0.30078 0 6.3984 3.5 10.398 1.3984 1.6016 3.1992 2.6992 5.5 3.3984 0.39844 0.10156 0.80078 0.19922 1.1992 0.19922h0.30078v4.6992l-35.699 0.007812c-1.1016 0-2 0.89844-2 2 0 1.1016 0.89844 2 2 2h74c1.1016 0 2-0.89844 2-2 0-1.1016-0.89844-1.9023-2-1.9023zm-34.199-14.801c0.60156-2.3984 1.6992-4.3008 3-5.6992 2.3008-2.3008 5.6016-3.1016 7.6992-3.5-0.30078 2.1016-1.1992 5.3984-3.5 7.6992-1.3984 1.3984-3.3008 2.3984-5.6992 3-0.69922 0.19922-1.1016-0.19922-1.3008-0.30078 0-0.097656-0.39844-0.49609-0.19922-1.1992zm-4.3008 6.1016-0.10156 0.10156c-1.5-0.5-2.8008-1.1992-3.6992-2.3008-1.3984-1.6016-2-3.8008-2.3008-5.3984 1.3008 0.30078 3 1 4.1992 2.3984 0.89844 1 1.6016 2.6016 2 4.3984 0.20312 0.30078 0.10547 0.60156-0.097656 0.80078z"/>
  <path d="m74.199 22.699c-2.1016-2.1016-4.3008-3.8008-6.8008-5.3008-0.10156-0.10156-0.19922-0.19922-0.30078-0.19922-0.10156-0.10156-0.30078-0.10156-0.39844-0.19922-5.1016-2.8984-10.801-4.3984-16.801-4.3984-9.1992 0-17.801 3.6016-24.301 10.102-0.80078 0.80078-0.80078 2 0 2.8008 0.80078 0.80078 2 0.80078 2.8008 0 1.3984-1.3984 3-2.6992 4.6016-3.8008l1.8008 3.1016c0.39844 0.60156 1 1 1.6992 1 0.30078 0 0.69922-0.10156 1-0.30078 1-0.60156 1.3008-1.8008 0.69922-2.6992l-1.8008-3.1016c3.5-1.8008 7.3984-2.8008 11.398-3v3.5c0 1.1016 0.89844 2 2 2s2-0.89844 2-2v-3.5c4 0.30078 7.8984 1.3008 11.398 3l-1.6992 3c-0.60156 1-0.19922 2.1992 0.69922 2.6992 0.30078 0.19922 0.69922 0.30078 1 0.30078 0.69922 0 1.3984-0.39844 1.6992-1l1.6992-3c1.6016 1.1016 3.1992 2.3984 4.6016 3.8008 0.39844 0.39844 0.89844 0.60156 1.3984 0.60156s1-0.19922 1.3984-0.60156c1.0078-0.70312 1.0078-2.0039 0.20703-2.8047z"/>
  <path d="m44.199 82.199c-1.1016 0-2-0.89844-2-2v-13.098c0-1.1016 0.89844-2 2-2h2.6016c3.8984 0 6.1992 2.1992 6.1992 6 0 2.3984-1 5.3008-5.8984 5.3008h-0.89844v3.8008c-0.003906 1.0977-0.90234 1.9961-2.0039 1.9961zm2-9.8008h0.89844c1.8984 0 1.8984-0.30078 1.8984-1.3008 0-1.3008-0.30078-2-2.1992-2h-0.60156z"/>
  <path d="m56 76.602c-1.1016 0-2-0.89844-2-2v-12.801c0-1.1016 0.89844-2 2-2s2 0.89844 2 2v12.898c0 1-0.89844 1.9023-2 1.9023z"/>
  <path d="m64.801 76.602c-1.1016 0-2-0.89844-2-2v-12.801c0-1.1016 0.89844-2 2-2 1.1016 0 2 0.89844 2 2v12.898c0 1-0.90234 1.9023-2 1.9023z"/>
  <path d="m64.5 70.199h-8.3984c-1.1016 0-2-0.89844-2-2 0-1.1016 0.89844-2 2-2h8.3984c1.1016 0 2 0.89844 2 2 0 1.1016-0.89844 2-2 2z"/>
  <path d="m96.398 72.5c0.39844-1.1992 0.60156-2.5 0.60156-3.8008v-37.5c0-4.3984-2.3984-8.3984-6.1992-10.5l-35-19.199c-3.6016-2-7.8984-2-11.5 0l-35 19.199c-3.9023 2.1016-6.3008 6.1016-6.3008 10.5v37.602c0 4.3984 2.3984 8.3984 6.1992 10.5l35 19.199c1.8008 1 3.8008 1.5 5.8008 1.5s4-0.5 5.8008-1.5l12.602-6.8984c3 5 8.3984 8.3984 14.602 8.3984 9.3984 0 17-7.6016 17-17-0.003906-3.8984-1.4023-7.6016-3.6055-10.5zm-4.6992 5.6016-8 12c-0.30078 0.5-0.80078 0.80078-1.3984 0.89844h-0.30078c-0.5 0-0.89844-0.19922-1.3008-0.5l-6-5c-0.80078-0.69922-1-2-0.30078-2.8008 0.69922-0.80078 2-1 2.8008-0.30078l4.3008 3.6016 6.8008-10.102c0.60156-0.89844 1.8984-1.1992 2.8008-0.60156 0.89844 0.60156 1.1992 1.9023 0.59766 2.8047zm1.3008-9.3008v0.5c-2.8008-2-6.1992-3.3008-10-3.3008-9.3984 0-17 7.6016-17 17 0 1.6992 0.30078 3.3984 0.69922 4.8984l-12.898 7.1016c-2.3984 1.3008-5.3008 1.3008-7.6992 0l-35-19.199c-2.6016-1.3984-4.1992-4.1016-4.1992-7l-0.003906-37.602c0-2.8984 1.6016-5.6016 4.1016-7l35.199-19.199c1.1992-0.69922 2.5-1 3.8008-1s2.6016 0.30078 3.8008 1l35 19.199c2.6016 1.3984 4.1992 4.1016 4.1992 7z"/>
 </g>
</svg>
