<?xml version="1.0" encoding="UTF-8"?>
<svg width="1200pt" height="1200pt" version="1.1" viewBox="0 0 1200 1200" xmlns="http://www.w3.org/2000/svg">
 <g>
  <path d="m1082.4 738.74-51.395 51.406c-15.941 15.93-41.871 15.93-57.789 0l-51.406-51.406c-42.254-42.266-111-42.266-153.25 0l-51.395 51.406c-15.941 15.93-41.871 15.93-57.789 0l-51.406-51.406c-42.254-42.266-111-42.266-153.25 0l-51.395 51.406c-15.941 15.93-41.871 15.93-57.789 0l-51.406-51.406c-42.254-42.266-111-42.266-153.24 0l-70.984 70.992c-13.184 13.172-13.184 34.555 0 47.727 13.172 13.184 34.551 13.184 47.727 0l70.992-70.992c15.941-15.93 41.859-15.93 57.789 0l51.406 51.406c42.242 42.254 110.98 42.254 153.25 0l51.395-51.406c15.941-15.93 41.859-15.93 57.789 0l51.406 51.406c42.242 42.254 110.98 42.254 153.25 0l51.395-51.406c15.941-15.93 41.859-15.93 57.789 0l51.406 51.406c21.121 21.125 48.867 31.684 76.617 31.684 27.746 0 55.496-10.559 76.629-31.684l51.398-51.406c13.176-13.184 13.176-34.551-0.007813-47.727-13.188-13.184-34.547-13.184-47.73 0z"/>
  <path d="m1082.4 550.44-51.398 51.395c-15.941 15.93-41.863 15.93-57.793 0l-51.398-51.395c-42.254-42.254-111-42.266-153.24 0l-51.398 51.395c-15.941 15.93-41.863 15.93-57.793 0l-51.398-51.395c-42.254-42.254-111-42.266-153.24 0l-51.398 51.395c-15.941 15.93-41.863 15.93-57.793 0l-51.398-51.395c-42.254-42.254-111-42.266-153.24 0l-71.004 70.996c-13.184 13.172-13.184 34.555 0 47.727 13.172 13.184 34.551 13.184 47.727 0l70.992-70.992c15.941-15.93 41.852-15.93 57.793 0l51.398 51.395c42.23 42.242 110.99 42.254 153.24 0l51.398-51.395c15.941-15.93 41.852-15.93 57.793 0l51.398 51.395c42.238 42.242 110.99 42.254 153.24 0l51.398-51.395c15.941-15.93 41.852-15.93 57.793 0l51.398 51.395c21.121 21.125 48.867 31.684 76.617 31.684 27.746 0 55.504-10.559 76.625-31.684l51.398-51.395c13.184-13.172 13.184-34.539 0.007813-47.727-13.172-13.176-34.543-13.195-47.723-0.003906z"/>
  <path d="m1082.4 362.14-51.395 51.406c-15.941 15.93-41.871 15.93-57.789 0l-51.406-51.406c-42.254-42.254-111-42.266-153.25 0l-51.395 51.406c-15.941 15.93-41.871 15.93-57.789 0l-51.406-51.406c-42.254-42.254-111-42.266-153.25 0l-51.395 51.406c-15.941 15.93-41.871 15.93-57.789 0l-51.406-51.406c-42.254-42.254-111-42.266-153.24 0l-70.984 70.992c-13.184 13.172-13.184 34.555 0 47.727 13.172 13.184 34.551 13.184 47.727 0l70.992-70.992c15.941-15.93 41.859-15.93 57.789 0l51.406 51.406c42.242 42.254 110.98 42.254 153.25 0l51.395-51.406c15.941-15.93 41.859-15.93 57.789 0l51.406 51.406c42.242 42.254 110.98 42.254 153.25 0l51.395-51.406c15.941-15.93 41.859-15.93 57.789 0l51.406 51.406c21.121 21.125 48.867 31.684 76.617 31.684s55.496-10.559 76.629-31.684l51.398-51.406c13.176-13.184 13.176-34.551-0.007813-47.727-13.188-13.184-34.547-13.184-47.73 0z"/>
 </g>
</svg>
