<?xml version="1.0" encoding="UTF-8"?>
<svg width="1200pt" height="1200pt" version="1.1" viewBox="0 0 1200 1200" xmlns="http://www.w3.org/2000/svg">
 <path d="m882 343.2c21.602-58.801 14.398-121.2-18-168-9.6016-13.199-22.801-27.602-42-40.801h25.199c28.801 0 51.602-24 51.602-51.602s-24-51.602-51.602-51.602l-487.2 0.003907c-28.801 0-51.602 22.801-51.602 51.602s24 51.602 51.602 51.602h25.199c-19.199 13.199-32.398 27.602-42 40.801-32.398 46.801-39.602 109.2-18 168 44.402 122.4 170.4 220.8 222 256.8-51.602 36-177.6 134.4-222 256.8-21.602 58.801-14.398 121.2 18 168 9.6016 13.199 22.801 27.602 42 40.801h-33.602c-28.801 0-51.602 22.801-51.602 51.602s24 52.801 51.602 52.801l488.4-0.003906c28.801 0 51.602-24 51.602-52.801s-24-51.602-51.602-51.602h-18c19.199-13.199 32.398-27.602 42-40.801 32.398-45.602 39.602-109.2 18-168-44.398-122.4-169.2-220.8-220.8-256.8 51.602-36 176.4-134.4 220.8-256.8zm-522-244.8c-9.6016 0-16.801-7.1992-16.801-16.801 0-9.6016 7.1992-16.801 16.801-16.801h489.6c9.6016 0 16.801 7.1992 16.801 16.801 0 9.6016-7.1992 16.801-16.801 16.801zm12 97.203c27.602-39.602 79.199-61.199 147.6-61.199h169.2c68.398 0 118.8 21.602 147.6 61.199 16.801 24 25.199 56.398 22.801 88.801-70.801-25.199-175.2 3.6016-278.4 32.398-90 25.199-175.2 49.199-216 27.602-2.3984-4.8008-3.6016-9.6016-6-13.199-16.805-48.004-12.004-99.602 13.195-135.6zm0 808.8c-25.199-36-30-87.602-13.199-135.6 44.398-121.2 181.2-220.8 219.6-247.2-4.8008 138-12 231.6-24 276-8.3984 34.801-40.801 51.602-73.199 68.398-32.398 16.801-64.801 34.801-75.602 69.602-13.199-8.4023-23.996-18-33.598-31.203zm468 97.203c9.6016 0 16.801 7.1992 16.801 16.801 0 9.6016-7.1992 16.801-16.801 16.801h-489.6c-9.6016 0-16.801-7.1992-16.801-16.801 0-9.6016 7.1992-16.801 16.801-16.801zm9.6016-232.8c16.801 46.801 12 99.602-13.199 135.6-9.6016 13.199-21.602 24-36 33.602-9.6016-36-43.199-54-75.602-72-33.602-18-64.801-33.602-73.199-68.398-16.801-66-21.602-214.8-21.602-276 38.398 26.395 175.2 126 219.6 247.2z"/>
</svg>
