<?xml version="1.0" encoding="UTF-8"?>
<svg width="1200pt" height="1200pt" version="1.1" viewBox="0 0 1200 1200" xmlns="http://www.w3.org/2000/svg">
 <path d="m77.941 811.02c-10.656 6.9102-24.875 3.8867-31.789-6.7305-6.9102-10.621-3.8867-24.875 6.7695-31.754 22.754-14.867 45.539-29.734 69.266-41.363 25.234-12.348 50.797-20.594 76.898-20.594 51.266 0 98.715 30.996 146.16 61.957 41.652 27.215 83.305 54.398 121.14 54.398 37.836 0 79.488-27.215 121.14-54.398 47.449-30.996 94.898-61.957 146.16-61.957 51.266 0 98.715 30.996 146.16 61.957 41.652 27.215 83.305 54.398 121.14 54.398 37.836 0 79.488-27.215 121.14-54.398 10.621-6.9102 24.84-3.8867 31.754 6.7305 6.9102 10.621 3.8867 24.875-6.7305 31.754-47.449 30.996-94.898 61.957-146.16 61.957-51.266 0-98.715-30.996-146.16-61.957-41.652-27.215-83.305-54.398-121.14-54.398-37.836 0-79.488 27.215-121.14 54.398-47.449 30.996-94.898 61.957-146.16 61.957-51.266 0-98.715-30.996-146.16-61.957-41.652-27.215-83.305-54.398-121.14-54.398-18.434 0-37.477 6.3008-56.738 15.73-20.844 10.188-42.625 24.445-64.406 38.664zm712.41-334.62c0 105.12-85.211 190.33-190.33 190.33-105.12 0-190.33-85.211-190.33-190.33 0-103.14 144.94-332.68 190.33-408.14 45.395 75.457 190.33 304.96 190.33 408.14zm-712.41 593.43c-10.656 6.9102-24.875 3.8867-31.789-6.7305-6.9102-10.621-3.8867-24.875 6.7695-31.754 22.754-14.867 45.539-29.734 69.266-41.363 25.234-12.348 50.797-20.594 76.898-20.594 51.266 0 98.715 30.996 146.16 61.957 41.652 27.215 83.305 54.398 121.14 54.398 37.836 0 79.488-27.215 121.14-54.398 47.449-30.996 94.898-61.957 146.16-61.957 51.266 0 98.715 30.996 146.16 61.957 41.652 27.215 83.305 54.398 121.14 54.398 37.836 0 79.488-27.215 121.14-54.398 10.621-6.9102 24.84-3.8867 31.754 6.7305 6.9102 10.621 3.8867 24.875-6.7305 31.754-47.449 30.996-94.898 61.957-146.16 61.957-51.266 0-98.715-30.996-146.16-61.957-41.652-27.215-83.305-54.398-121.14-54.398-37.836 0-79.488 27.215-121.14 54.398-47.449 30.996-94.898 61.957-146.16 61.957-51.266 0-98.715-30.996-146.16-61.957-41.652-27.215-83.305-54.398-121.14-54.398-18.434 0-37.477 6.3008-56.738 15.73-20.844 10.188-42.625 24.445-64.406 38.664z"/>
</svg>
