<?xml version="1.0" encoding="UTF-8"?>
<svg width="100pt" height="100pt" version="1.1" viewBox="0 0 100 100" xmlns="http://www.w3.org/2000/svg">
 <g>
  <path d="m50 64.938c-7.4844 0.25781-13.77-5.5781-14.062-13.062 0-2.9648 11.184-25.797 11.184-25.797 0.55078-1.0859 1.6641-1.7695 2.8789-1.7695s2.3281 0.68359 2.8789 1.7695c0 0 11.184 22.836 11.184 25.797-0.29297 7.4844-6.5781 13.32-14.062 13.062zm0.60156-29.102c-0.12109-0.21875-0.35156-0.35156-0.60156-0.35156s-0.48047 0.13281-0.60156 0.35156c-2.8398 5.1406-5.25 10.504-7.2109 16.039 0.16016 4.1562 3.6523 7.4023 7.8125 7.2578 4.1602 0.14453 7.6523-3.1016 7.8125-7.2578-1.9609-5.5352-4.3711-10.898-7.2109-16.039z"/>
  <path d="m56.469 75.688c-1.5156-0.007812-3.0156-0.3125-4.4141-0.88672-1.25-0.51562-2.6523-0.50781-3.8906 0.019531-4.4688 1.7305-9.5352 0.625-12.875-2.8125-1.1875-1.2227-1.1758-3.1719 0.027344-4.3789 1.2031-1.2109 3.1523-1.2305 4.3789-0.050781 1.0273 1.1602 2.5 1.8281 4.0469 1.8281 1.5508 0 3.0234-0.66797 4.0469-1.8281 1.2227-1.2188 3.1992-1.2188 4.4219 0 1.0195 1.1602 2.4922 1.8242 4.0391 1.8242s3.0195-0.66406 4.0391-1.8242c0.58203-0.60156 1.3828-0.94531 2.2227-0.95312 0.83594-0.007812 1.6445 0.32031 2.2383 0.91406 0.58984 0.59375 0.92188 1.3984 0.91406 2.2383-0.007812 0.83594-0.35156 1.6367-0.95312 2.2188-2.1289 2.3047-5.1055 3.6406-8.2422 3.6914z"/>
  <path d="m50 96.875c-12.434 0-24.355-4.9375-33.145-13.73-8.793-8.7891-13.73-20.711-13.73-33.145s4.9375-24.355 13.73-33.145c8.7891-8.793 20.711-13.73 33.145-13.73s24.355 4.9375 33.145 13.73c8.793 8.7891 13.73 20.711 13.73 33.145-0.015625 12.426-4.957 24.344-13.746 33.129-8.7852 8.7891-20.703 13.73-33.129 13.746zm0-87.5c-10.773 0-21.109 4.2812-28.727 11.898-7.6172 7.6172-11.898 17.953-11.898 28.727s4.2812 21.109 11.898 28.727c7.6172 7.6172 17.953 11.898 28.727 11.898s21.109-4.2812 28.727-11.898c7.6172-7.6172 11.898-17.953 11.898-28.727-0.011719-10.77-4.2969-21.098-11.914-28.711-7.6133-7.6172-17.941-11.902-28.711-11.914z"/>
  <path d="m50 87.5c-9.9453 0-19.484-3.9492-26.516-10.984-7.0352-7.0312-10.984-16.57-10.984-26.516s3.9492-19.484 10.984-26.516c7.0312-7.0352 16.57-10.984 26.516-10.984s19.484 3.9492 26.516 10.984c7.0352 7.0312 10.984 16.57 10.984 26.516-0.011719 9.9414-3.9648 19.473-10.996 26.504s-16.562 10.984-26.504 10.996zm0-68.75c-8.2891 0-16.238 3.293-22.098 9.1523s-9.1523 13.809-9.1523 22.098 3.293 16.238 9.1523 22.098 13.809 9.1523 22.098 9.1523 16.238-3.293 22.098-9.1523 9.1523-13.809 9.1523-22.098c-0.007812-8.2852-3.3047-16.227-9.1641-22.086-5.8594-5.8594-13.801-9.1562-22.086-9.1641z"/>
 </g>
</svg>
