<?xml version="1.0" encoding="UTF-8" standalone="no"?>
<!-- Generator: Adobe Illustrator 27.9.0, SVG Export Plug-In . SVG Version: 6.00 Build 0)  -->

<svg
   version="1.1"
   id="Layer_1"
   x="0px"
   y="0px"
   viewBox="0 0 400 400"
   style="enable-background:new 0 0 400 400;"
   xml:space="preserve"
   sodipodi:docname="icon.svg"
   inkscape:version="1.2.2 (b0a8486, 2022-12-01)"
   xmlns:inkscape="http://www.inkscape.org/namespaces/inkscape"
   xmlns:sodipodi="http://sodipodi.sourceforge.net/DTD/sodipodi-0.dtd"
   xmlns="http://www.w3.org/2000/svg"
   xmlns:svg="http://www.w3.org/2000/svg"><defs
   id="defs25" /><sodipodi:namedview
   id="namedview23"
   pagecolor="#ffffff"
   bordercolor="#000000"
   borderopacity="0.25"
   inkscape:showpageshadow="2"
   inkscape:pageopacity="0.0"
   inkscape:pagecheckerboard="true"
   inkscape:deskcolor="#d1d1d1"
   showgrid="false"
   inkscape:zoom="0.59"
   inkscape:cx="42.372881"
   inkscape:cy="241.52542"
   inkscape:window-width="1760"
   inkscape:window-height="697"
   inkscape:window-x="2611"
   inkscape:window-y="741"
   inkscape:window-maximized="0"
   inkscape:current-layer="Layer_1" />
<style
   type="text/css"
   id="style2">
	.st0{fill-rule:evenodd;clip-rule:evenodd;}
</style>
<g
   id="g20"
   transform="matrix(1.3333222,0,0,1.291902,-129.05242,-4.1543318)">
	<g
   id="g16">
		<path
   class="st0"
   d="m 155.37,246.49 c 5.46,0 10.7,-2.43 14.57,-6.74 3.86,-4.32 6.03,-10.18 6.03,-16.28 V 89.51 c 0,-6.1 -2.17,-11.96 -6.03,-16.28 -3.86,-4.31 -9.11,-6.74 -14.57,-6.74 h -37.44 c -5.46,0 -10.7,2.43 -14.57,6.74 -3.86,4.32 -6.03,10.18 -6.03,16.28 v 133.95 c 0,6.1 2.17,11.96 6.03,16.28 3.86,4.31 9.11,6.74 14.57,6.74 h 37.44 z m 0,-12.56 h -37.44 c -2.49,0 -4.86,-1.11 -6.62,-3.06 -1.75,-1.97 -2.74,-4.62 -2.74,-7.4 V 89.52 c 0,-2.78 0.99,-5.43 2.74,-7.4 1.76,-1.96 4.13,-3.06 6.62,-3.06 h 37.44 c 2.49,0 4.86,1.11 6.62,3.06 1.75,1.97 2.74,4.62 2.74,7.4 v 133.95 c 0,2.78 -0.99,5.43 -2.74,7.4 -1.76,1.95 -4.13,3.06 -6.62,3.06 z"
   id="path4" />
		<path
   class="st0"
   d="m 153.5,110.44 c 0,-10.4 -7.55,-18.84 -16.85,-18.84 -9.3,0 -16.85,8.44 -16.85,18.84 0,10.4 7.55,18.84 16.85,18.84 9.3,0 16.85,-8.44 16.85,-18.84 z m -11.23,0 c 0,3.47 -2.52,6.28 -5.62,6.28 -3.1,0 -5.62,-2.81 -5.62,-6.28 0,-3.47 2.52,-6.28 5.62,-6.28 3.1,0 5.62,2.82 5.62,6.28 z"
   id="path6" />
		<path
   class="st0"
   d="m 153.5,156.49 c 0,-10.4 -7.55,-18.84 -16.85,-18.84 -9.3,0 -16.85,8.44 -16.85,18.84 0,10.4 7.55,18.84 16.85,18.84 9.3,0 16.85,-8.44 16.85,-18.84 z m -11.23,0 c 0,3.47 -2.52,6.28 -5.62,6.28 -3.1,0 -5.62,-2.81 -5.62,-6.28 0,-3.47 2.52,-6.28 5.62,-6.28 3.1,0 5.62,2.81 5.62,6.28 z"
   id="path8" />
		<path
   class="st0"
   d="m 153.5,202.54 c 0,-10.4 -7.55,-18.84 -16.85,-18.84 -9.3,0 -16.85,8.44 -16.85,18.84 0,10.4 7.55,18.84 16.85,18.84 9.3,0 16.85,-8.45 16.85,-18.84 z m -11.23,0 c 0,3.47 -2.52,6.28 -5.62,6.28 -3.1,0 -5.62,-2.81 -5.62,-6.28 0,-3.47 2.52,-6.28 5.62,-6.28 3.1,0 5.62,2.81 5.62,6.28 z"
   id="path10" />
		<path
   class="st0"
   d="m 187.92,142.82 c 1.92,3.81 3.03,8.55 3.03,13.66 0,5.12 -1.11,9.86 -3.03,13.67 -1.52,3.02 -0.56,6.85 2.14,8.56 2.7,1.7 6.13,0.63 7.65,-2.39 2.78,-5.53 4.46,-12.39 4.46,-19.83 0,-7.43 -1.68,-14.3 -4.46,-19.83 -1.53,-3.02 -4.95,-4.09 -7.65,-2.39 -2.7,1.7 -3.66,5.52 -2.14,8.55 z"
   id="path12" />
		<path
   class="st0"
   d="m 207.84,130.16 c 3.52,7.33 5.57,16.46 5.57,26.33 0,9.87 -2.05,19 -5.57,26.33 -1.47,3.06 -0.44,6.87 2.29,8.51 2.73,1.64 6.14,0.49 7.6,-2.56 4.32,-9 6.91,-20.17 6.91,-32.27 0,-12.1 -2.59,-23.27 -6.91,-32.27 -1.46,-3.05 -4.87,-4.2 -7.6,-2.56 -2.73,1.64 -3.76,5.43 -2.29,8.49 z"
   id="path14" />
	</g>
	<path
   d="M 393.63,141.46 350.21,124 332.07,98.51 c -3.2,-4.4 -7.98,-6.91 -13.03,-6.91 h -44.93 c -5.56,0 -10.78,3.08 -13.93,8.23 l -15.22,24.99 c -3.2,5.21 -4.89,11.37 -4.89,17.65 v 49.54 c 0,3.45 2.53,6.28 5.62,6.28 h 12.02 c 2.53,10.8 11.23,18.84 21.68,18.84 10.45,0 19.15,-8.04 21.68,-18.84 h 35.27 c 2.53,10.8 11.23,18.84 21.68,18.84 10.45,0 19.15,-8.04 21.68,-18.84 h 12.02 c 3.09,0 5.62,-2.76 5.62,-6.28 V 147.3 c 0,-2.64 -1.46,-5.02 -3.71,-5.9 z m -114.24,63.23 c -6.18,0 -11.23,-5.65 -11.23,-12.56 0,-6.91 5.05,-12.56 11.23,-12.56 6.18,0 11.23,5.65 11.23,12.56 0,6.91 -5.06,12.56 -11.23,12.56 z m 78.63,0 c -6.18,0 -11.23,-5.65 -11.23,-12.56 0,-6.91 5.05,-12.56 11.23,-12.56 6.18,0 11.23,5.65 11.23,12.56 0,6.91 -5.05,12.56 -11.23,12.56 z m 28.08,-18.84 h -6.4 c -2.53,-10.8 -11.23,-18.84 -21.68,-18.84 -10.45,0 -19.15,8.04 -21.68,18.84 h -35.27 c -2.53,-10.8 -11.23,-18.84 -21.68,-18.84 -10.45,0 -19.15,8.04 -21.68,18.84 h -6.4 v -43.26 c 0,-3.77 1.01,-7.47 2.92,-10.61 l 15.22,-24.99 c 1.07,-1.7 2.81,-2.76 4.66,-2.76 h 44.93 c 1.68,0 3.26,0.82 4.27,2.2 l 19.1,26.81 c 0.67,0.94 1.52,1.57 2.47,2.01 l 41.23,16.58 z"
   id="path18" />
</g>
</svg>
