<?xml version="1.0" encoding="UTF-8"?>
<svg width="100pt" height="100pt" version="1.1" viewBox="0 0 100 100" xmlns="http://www.w3.org/2000/svg">
 <g>
  <path d="m50 13.617c-4.5273 0-13.09-0.44141-13.09-2.1055v-2.4414c0-1.6641 8.5625-2.1055 13.09-2.1055s13.09 0.44141 13.09 2.1055v2.4414c0 1.6641-8.5625 2.1055-13.09 2.1055zm0-6.1562c-8.2656 0-12.59 1.0469-12.59 1.6055v2.4414c0 0.5625 4.3242 1.6055 12.59 1.6055s12.59-1.0469 12.59-1.6055v-2.4414c0-0.55859-4.3242-1.6055-12.59-1.6055z"/>
  <path d="m50 26.359c-17.527 0-36.156-1.4492-36.156-4.1328 0-0.13672 0.11328-0.25 0.25-0.25s0.25 0.11328 0.25 0.25c0 1.4844 12.695 3.6328 35.656 3.6328 22.957 0 35.652-2.1484 35.652-3.6328 0-0.13672 0.11328-0.25 0.25-0.25 0.13672 0 0.25 0.11328 0.25 0.25 0.003906 2.6836-18.625 4.1328-36.152 4.1328z"/>
  <path d="m15.09 63.559c-1.1562 0.85156-1.1562 1.4609-1.1562 1.6602 0 0.61328 0.63281 1.2188 1.1641 1.6133l0.58984 0.4375v1.0547c5.5625 2.9375 18.793 4.8867 34.199 4.8867 9.8008 0 19.02-0.79297 25.953-2.2344 3.9609-0.82031 6.875-1.7852 8.7227-2.875v-0.94141l0.54297-0.44141c0.64453-0.52344 0.96875-1.0273 0.96875-1.5 0-0.17969 0-0.72266-0.96875-1.5078l-0.54297-0.44141v-4.0469c-1.9648 0.81641-4.8203 1.5195-8.6289 2.125-7 1.1133-16.293 1.7266-26.168 1.7266s-19.168-0.61328-26.168-1.7266c-3.3789-0.53516-6-1.1484-7.9141-1.8438v3.6133z"/>
  <path d="m14.941 54.668c-0.50391 0.28516-1.1094 0.71875-1.1094 1.1523 0 0.33984 0.375 0.72656 1.1094 1.1445l0.74219 0.42188v1.0117c1.8633 0.72266 4.5625 1.3672 8.0781 1.9297 6.9492 1.1055 16.184 1.7148 26.004 1.7148s19.055-0.60938 26.004-1.7148c4.0039-0.63672 6.9414-1.3828 8.7891-2.2227v-0.82422l0.69922-0.42969c0.91797-0.56641 0.91797-0.91406 0.91797-1.0312 0-0.37891-0.5-0.76953-0.92188-1.0312l-0.69531-0.42969v-6.0195c-1.9531 0.65625-4.7031 1.2266-8.3281 1.7227-7.0156 0.95703-16.324 1.4844-26.215 1.4844-9.8867 0-19.195-0.52734-26.215-1.4844-3.4922-0.47656-6.1797-1.0234-8.1211-1.6562v5.8398z"/>
  <path d="m23.945 49.035c6.9727 0.95312 16.234 1.4766 26.074 1.4766 9.8438 0 19.102-0.52344 26.074-1.4766 3.75-0.51172 6.582-1.1133 8.4688-1.793v-0.90625l0.80078-0.40625c0.80078-0.40625 0.92188-0.67969 0.92578-0.67969 0.003907-0.019531 0.003907-0.10156 0.003907-0.15234 0-0.32031-0.66016-0.69922-0.94141-0.84766l-0.78906-0.41016v-6.2734c-1.9492 0.55859-4.7266 1.0391-8.4375 1.4609-7.0273 0.79297-16.348 1.2305-26.246 1.2305-9.8984 0-19.219-0.4375-26.242-1.2305-3.3633-0.37891-6.0195-0.82422-7.9492-1.3281v6.0625l-0.83203 0.39844c-0.71094 0.33984-1.1367 0.69141-1.1367 0.9375 0 0.050782 0 0.13281 0.003906 0.15234 0 0.003906 0.14453 0.31641 1.1211 0.77734l0.83984 0.39844v0.89844c1.8867 0.64062 4.6484 1.2188 8.2617 1.7109z"/>
  <path d="m49.812 84.91c17.625 0 29.855-2.6836 34.75-5.7773v-0.88672l0.52344-0.44141c0.76953-0.64844 1.1602-1.2734 1.1602-1.8633 0-0.625-0.39062-1.2695-1.1602-1.918l-0.52344-0.44141v-4.3047c-1.957 1.0352-4.7734 1.9297-8.5156 2.7031-7.0039 1.457-16.293 2.2578-26.164 2.2578-12.988 0-27.484-1.4883-34.199-4.7578v3.9453l-0.56641 0.44141c-0.89844 0.70312-1.3555 1.3984-1.3555 2.0742 0 0.64844 0.45703 1.3281 1.3555 2.0273l0.56641 0.44141v1.1289c6.2891 3.5352 21.035 5.3711 34.129 5.3711z"/>
  <path d="m49.812 85.945c-12.504 0-27.172-1.6562-34.129-5.2383v6.4062c0 0.39844 1.5859 2.2227 9.3477 3.832 6.6875 1.3867 15.598 2.1523 25.09 2.1523 9.4922 0 18.402-0.76562 25.09-2.1523 7.7617-1.6094 9.3477-3.4336 9.3477-3.832v-6.7422c-6.625 3.8086-21.637 5.5742-34.746 5.5742z"/>
  <path d="m15.684 35.707v0.91016c1.8867 0.51953 4.582 0.97656 8.0664 1.3711 6.9883 0.78906 16.27 1.2227 26.129 1.2227s19.141-0.43359 26.129-1.2227c3.8047-0.42969 6.6602-0.9375 8.5547-1.5156v-0.83984l0.90234-0.375c0.62109-0.25781 0.85156-0.45312 0.91797-0.52734 0.003907-0.03125 0-0.0625 0-0.10156 0-0.003906-0.12891-0.25391-0.92969-0.59766l-0.89062-0.38281v-3.9297c-0.54297 0.17969-3.168 3.5977-6.8438 3.9727-2.0469 0.21094-4.6719-2.332-7.168-2.1172-2.2461 0.19141-4.3789 3.1484-6.7031 3.3125-2.3867 0.17188-4.9102-2.4492-7.0938-2.3398-2.6523 0.13672-4.9805 2.9922-6.8594 2.9922-2.2812 0-3.4336-2.7812-6.8711-2.8594-2.0586-0.046876-4.5117 2.6602-6.9883 2.5508-2.25-0.097657-4.4336-2.9961-6.7305-3.1641-2.3906-0.17578-5.0117 2.3633-7.1445 2.0898-2.6914-0.34766-4.7617-3.8633-6.4688-4.4102v3.832l-0.92969 0.36328c-0.99609 0.39062-1.1289 0.67578-1.1289 0.69531v0.082031c0.074219 0.078125 0.34766 0.30859 1.1211 0.60938z"/>
  <path d="m50 11.176c-4.5273 0-13.09-0.44141-13.09-2.1094 0-1.6641 8.5625-2.1055 13.09-2.1055s13.09 0.44141 13.09 2.1055c0 1.668-8.5625 2.1094-13.09 2.1094zm0-3.7148c-8.2656 0-12.59 1.0469-12.59 1.6055 0 0.5625 4.3242 1.6094 12.59 1.6094s12.59-1.0469 12.59-1.6094c0-0.55859-4.3242-1.6055-12.59-1.6055z"/>
  <path d="m50.117 95c-17.648 0-36.406-2.7852-36.406-7.9492v-7.7422c-1.2734-1.0508-1.9219-2.1992-1.9219-3.4258 0-1.25 0.64453-2.418 1.9219-3.4688v-4.2266c-1.1641-0.92578-1.75-1.9453-1.75-3.0312 0-1.1328 0.58984-2.168 1.75-3.0859v-3.6055c-1.2461-0.76953-1.8516-1.6562-1.8516-2.7031 0-1.0547 0.60547-1.9453 1.8516-2.7148v-5.4453c-1.9688-1.0195-1.9688-2.0547-1.9688-2.5664 0-1.0273 0.64453-1.8672 1.9688-2.5664v-5.4727c-1.8945-0.8125-2.0586-1.6562-2.0586-2.3945 0-1.2812 1.0977-1.9766 2.0586-2.3945v-9.5742c0-0.042968 0.003906-0.085937 0.015624-0.125-0.011718-0.10547-0.015624-0.1875-0.015624-0.27344 0-4.9219 8.9922-9.2148 22.945-10.98v-2.1797c0-2.2422 11.113-2.3555 13.34-2.3555 2.2266 0 13.34 0.11328 13.34 2.3555v2.1484c14.102 1.75 23.184 6.0547 23.184 11.012 0 0.09375-0.007812 0.1875-0.015625 0.28125 0.011719 0.039063 0.015625 0.078125 0.015625 0.11719v9.6875c1.2266 0.59375 1.8203 1.3438 1.8203 2.2852 0 0.69922-0.14844 1.5078-1.8203 2.2852v5.707c1.1641 0.67188 1.7305 1.4727 1.7305 2.4414 0 0.76953-0.21875 1.5938-1.7305 2.4414v5.7383c1.0703 0.73047 1.6133 1.5859 1.6133 2.5469 0 0.98438-0.52734 1.8203-1.6133 2.5508v3.9648c1.0039 0.87109 1.5117 1.8398 1.5117 2.8789 0 1.0312-0.50781 1.9961-1.5117 2.8711v4.5898c1.1172 1 1.6836 2.0977 1.6836 3.2656 0 1.1367-0.56641 2.2188-1.6836 3.2148v7.9531c0.003907 5.1602-18.754 7.9453-36.402 7.9453zm-35.402-72.262v9.7969c0 0.20703-0.125 0.39062-0.31641 0.46484-1.543 0.60938-1.7422 1.1719-1.7422 1.5938 0 0.38672 0 0.91797 1.7383 1.5938 0.19141 0.074219 0.32031 0.26172 0.32031 0.46484v6.1172c0 0.19141-0.10938 0.36719-0.28516 0.44922-1.5078 0.72656-1.6836 1.3789-1.6836 1.8086 0 0.37891 0 1.0117 1.6797 1.8047 0.17578 0.082031 0.28516 0.25781 0.28516 0.45312v6.043c0 0.17969-0.097657 0.34766-0.25391 0.43359-1.0742 0.60938-1.5977 1.2617-1.5977 1.9922 0 0.46484 0.16406 1.1719 1.5977 1.9844 0.15625 0.089844 0.25391 0.25391 0.25391 0.43359v4.1367c0 0.16016-0.074219 0.30859-0.20313 0.40234-1.043 0.76562-1.5469 1.5625-1.5469 2.4375 0 0.81641 0.52344 1.6172 1.5508 2.3867 0.125 0.09375 0.19922 0.24219 0.19922 0.39844v4.7109c0 0.15234-0.070313 0.30078-0.19141 0.39453-1.1484 0.89453-1.7305 1.8477-1.7305 2.8359 0 0.96094 0.58203 1.9023 1.7266 2.793 0.12109 0.09375 0.19141 0.24219 0.19141 0.39453v7.9805c0 3.2852 14.539 6.9492 35.406 6.9492 20.863 0 35.402-3.6602 35.402-6.9492v-8.1836c0-0.14844 0.066406-0.28906 0.17969-0.38281 0.99609-0.83984 1.5039-1.7148 1.5039-2.6016 0-0.92188-0.50781-1.8164-1.5039-2.6562-0.11328-0.09375-0.17969-0.23438-0.17969-0.38281v-5.0508c0-0.14844 0.066406-0.29297 0.18359-0.38672 0.89453-0.72656 1.3281-1.4609 1.3281-2.25 0-0.79688-0.43359-1.5352-1.3242-2.2578-0.11719-0.09375-0.1875-0.23828-0.1875-0.39062v-4.4688c0-0.17578 0.089844-0.33594 0.23828-0.42578 1.2227-0.75 1.3789-1.3867 1.3789-1.8555 0-0.67188-0.44922-1.2773-1.3789-1.8516-0.14844-0.089844-0.23438-0.25391-0.23438-0.42578v-6.3086c0-0.1875 0.10547-0.35937 0.27344-0.44531 1.457-0.74219 1.457-1.3164 1.457-1.6953 0-0.40234-0.15234-1.0195-1.4609-1.7031-0.16406-0.085937-0.26953-0.25781-0.26953-0.44141v-6.3281c0-0.20312 0.12109-0.38281 0.30859-0.46094 1.5156-0.63281 1.5156-1.1133 1.5156-1.5 0-0.36328-0.15625-0.91797-1.5195-1.5039-0.18359-0.078126-0.30469-0.26172-0.30469-0.46094v-9.8555c-0.027343-0.066406-0.035156-0.14062-0.027343-0.21094 0.015624-0.13672 0.027343-0.23828 0.027343-0.34375 0-4.4023-9.1406-8.4492-22.742-10.074-0.25-0.03125-0.44141-0.24219-0.44141-0.49609v-2.5195c-0.55859-0.59375-5.1797-1.4258-12.34-1.4258-7.1641 0-11.781 0.83203-12.34 1.4258v2.5508c0 0.25391-0.1875 0.46484-0.4375 0.49609-13.461 1.6406-22.508 5.6797-22.508 10.043 0 0.09375 0.011718 0.1875 0.019531 0.28125 0.011719 0.085937 0.003906 0.16797-0.015625 0.24219z"/>
  <path d="m54.109 9.2148c-0.27734 0-0.5-0.22266-0.5-0.5v-2.5703c0-0.082031-0.066406-0.14453-0.14453-0.14453h-7.5938c-0.078125 0-0.14453 0.066406-0.14453 0.14453v2.5703c0 0.27734-0.22266 0.5-0.5 0.5-0.27734 0-0.5-0.22266-0.5-0.5v-2.5703c0-0.63281 0.51563-1.1445 1.1445-1.1445h7.5938c0.63281 0 1.1445 0.51562 1.1445 1.1445v2.5703c0 0.27734-0.22266 0.5-0.5 0.5z"/>
 </g>
</svg>
