<?xml version="1.0" encoding="UTF-8"?>
<svg width="1200pt" height="1200pt" version="1.1" viewBox="0 0 1200 1200" xmlns="http://www.w3.org/2000/svg">
 <path d="m1127.8 451.21c0-13.754-13.246-24.684-77.914-33.422-44.398-6-103.33-9.3008-165.95-9.3008-37.043 0-72.527 1.2344-104.75 3.4336v-11.734l-8.8789-1.5859c-2.0039-0.35937-4.0078-0.66016-6-0.99609 12.121-6.8984 14.953-13.836 14.953-20.305 0-14.34-13.066-30.77-109.89-43.848-65.027-8.7852-151.39-13.621-243.17-13.621-91.777 0-178.14 4.8359-243.17 13.621-96.828 13.078-109.88 29.496-109.88 43.848 0 6.4062 2.7227 13.285 14.641 20.16-2.2422 0.42187-4.4883 0.75781-6.7188 1.1875l-8.8086 1.668v8.9297c0 39.254 0.32422 86.09 0.64844 132.35 0.58984 84.742 1.1523 167.33-0.61328 256.32v0.55078c0.82812 25.5 42.539 46.754 109.43 60.66 62.762 13.055 149.05 21.07 244.03 21.07 95.137 0 181.6-7.8828 244.38-20.832 66.672-13.754 108.24-34.812 109.07-60.277v-10.871c31.57 3.2773 66.852 5.2305 104.43 5.2305 64.754 0 123.57-5.3633 166.31-14.184 45.359-9.3477 73.656-23.688 74.219-41.016v-0.22656l-0.007812-265.09v-6.1445l-4.6797-0.83984c6.2383-4.5117 8.3281-9.4102 8.3281-14.738zm-28.441-0.15625c-5.0742 1.957-13.645 4.5117-27.758 7.2109-10.199-1.4766-20.387-2.8438-30.602-4.0938v-14.773c28.156 3.5078 48.113 7.6875 58.359 11.656zm-158.76-5.457v-13.547c29.473 0.99609 55.5 2.7109 77.785 4.8711v14.688c-25.918-2.75-51.852-4.8008-77.785-6.0117zm60.996 272.97-38.617 6.793v-36.098l38.617-6.8047zm0-59.062-38.617 6.8047v-35.688l38.617-6.793zm0-58.633-38.617 6.8047v-36.984l38.617-6.8164zm0-59.938-38.617 6.8047v-35.641l38.617-6.8164zm-38.613 207.39 38.617-6.8047v30.551c-12.191 1.4766-25.094 2.7344-38.617 3.7422zm38.613-266-38.617 6.8047v-27.59c12.863 0.82812 25.738 1.8594 38.617 3.0703zm-83.613-50.879v13.309c-11.449-0.33594-22.883-0.5625-34.344-0.60156-14.484-0.035156-28.957 0.25391-43.441 0.70703v-13.164c13.969-0.34766 28.391-0.61328 43.754-0.61328 11.77 0.015624 23.051 0.15625 34.031 0.36328zm-100.41 0.98438v13.355c-12.793 0.64844-25.598 1.4883-38.375 2.5195v-13.766c12.035-0.85156 24.742-1.5586 38.375-2.1094zm-62.758-55.297c-3.8633 2.5781-13.777 7.3789-37.609 12.758-21.828-3.3359-43.668-6.3008-65.52-8.9023v-26.941c56.914 6.8359 92.82 15.574 103.13 23.086zm-150.42 397.5-67.355 11.879v-63.816l67.355-11.879zm0-86.785-67.355 11.867v-63.203l67.355-11.879zm0-86.16-67.355 11.879v-65.137l67.355-11.867zm0-88.09-67.355 11.879v-63.168l67.355-11.879zm-67.355 295.87 67.355-11.879v50.566c-21.035 2.6875-43.559 4.8828-67.355 6.5625zm67.355-382-67.355 11.879v-47.184c22.441 1.4023 44.891 3.1914 67.355 5.3633zm-100.26-58.621v-25.176c47.652 1.5117 89.664 4.3086 124.95 7.8828v26.855c-41.629-4.5117-83.27-7.7266-124.95-9.5625zm-22.609-25.777v24.938c-18.602-0.58984-37.188-1.0195-55.789-1.0781-23.051-0.058594-46.105 0.42188-69.156 1.2109v-24.742c22.055-0.61328 45.238-0.97266 69.613-0.97266 19.211 0 37.547 0.25 55.332 0.64453zm-272.5 36.039v-25.992c34.738-3.9102 76.621-7.1172 124.95-8.9648v24.84c-41.652 1.957-83.305 5.2695-124.95 10.117zm-111.46-1.9805c9.4219-6.8633 40.32-14.723 88.848-21.238v26.102c-17.594 2.2695-35.184 4.7656-52.777 7.5586-22.715-5.2461-32.266-9.9023-36.07-12.422zm88.523 460.88c-56.496-11.746-91.656-26.004-92.305-40.129 1.7656-88.969 1.1875-171.6 0.60156-256.4-0.26172-37.727-0.52734-75.938-0.5625-123.32 110.69-20.426 221.33-30.035 331.91-29.723 29.543 0.085938 59.113 0.92578 88.68 2.4258v465.28c-28.297 1.5469-57.938 2.4492-88.68 2.4492-93.684-0.003906-178.39-7.8398-239.64-20.574zm571.59-39.625c-0.45703 14.09-35.473 28.234-91.848 39.852-11.988 2.4727-25.129 4.6914-38.809 6.7578v-445.18c43.547 4.7383 87.098 10.871 130.68 18.457zm21.516-24.984v-310.41c34.824-2.8555 69.637-4.2969 104.44-4.1992 18.898 0.046875 37.812 0.52734 56.734 1.4297v317.02c-18.18 0.91016-37.117 1.4766-56.746 1.4766-37.754 0.007812-73.035-1.9727-104.43-5.3086zm330.32-35.648c-0.3125 9.5898-24.156 19.223-62.52 27.121-7.0938 1.4648-14.809 2.7852-22.789 4.0547v-302.02c28.414 3.168 56.855 7.2344 85.309 12.191z"/>
</svg>
