<?xml version="1.0" encoding="UTF-8"?>
<svg width="100pt" height="100pt" version="1.1" viewBox="0 0 100 100" xmlns="http://www.w3.org/2000/svg">
 <path d="m91.668 33.168-27.086-18.219c-0.33203-0.23047-0.72266-0.35547-1.125-0.36719h-26.914c-0.41797 0-0.82422 0.125-1.168 0.35547l-27.043 18.23c-0.57422 0.38672-0.91797 1.0352-0.91406 1.7266v48.438c0 0.55469 0.21875 1.082 0.60938 1.4727 0.39062 0.39062 0.92188 0.61328 1.4727 0.61328h81.043c0.55078 0 1.082-0.22266 1.4727-0.61328 0.39062-0.39063 0.60938-0.91797 0.60938-1.4727v-48.438c-0.007812-0.69922-0.36719-1.3477-0.95703-1.7266zm-7.9883-0.35547h-19.43l-20.887-14.062h19.461zm-72.137 3.1875 25-16.812 25 16.812v45.25h-50zm54.156 45.25v-44.27h22.758v44.27zm-13.305-41.02c-0.52734-0.53516-1.3047-0.74219-2.0312-0.54297l-16.906 4.7188c-3.0664 0.85547-5.8633 2.4844-8.125 4.7305-4.5586 4.6406-6.4297 11.293-4.957 17.633l0.45703 2.082-1.7383 1.7383v0.003906c-0.42188 0.38281-0.67188 0.92188-0.6875 1.4922-0.015625 0.57031 0.20703 1.1211 0.60938 1.5234 0.40234 0.40625 0.95312 0.625 1.5234 0.61328 0.57031-0.011718 1.1094-0.25781 1.4922-0.67969l1.75-1.7383 2.082 0.45703c1.4258 0.30859 2.8789 0.46484 4.3359 0.46875 4.9805 0.023437 9.7656-1.9297 13.301-5.4375 2.2461-2.2539 3.8711-5.0508 4.7188-8.1172l4.7188-16.906c0.20312-0.72656-0.003906-1.5078-0.54297-2.0391zm-8.1953 17.82c-0.66797 2.3633-1.9258 4.5156-3.6562 6.25-3.4922 3.4336-8.4492 4.9219-13.25 3.9805l10.418-10.418h-0.003907c0.81641-0.8125 0.81641-2.1328 0-2.9453-0.8125-0.81641-2.1328-0.81641-2.9453 0l-10.418 10.418v-0.003907c-0.96094-4.793 0.51172-9.7578 3.9375-13.25 1.7383-1.7305 3.8906-2.9883 6.25-3.6562l13.387-3.7266z"/>
</svg>
